<svg width="28" height="25" viewBox="0 0 28 25" fill="none" xmlns="http://www.w3.org/2000/svg">
<path id="concierge" d="M11.25 25V22.5H27.5V25H11.25ZM12.5 21.25C12.5 19.5625 13.0313 18.0885 14.0938 16.8281C15.1563 15.5677 16.5 14.7917 18.125 14.5V13.7188C18.125 13.3646 18.2448 13.0677 18.4844 12.8281C18.724 12.5885 19.0208 12.4688 19.375 12.4688C19.7292 12.4688 20.026 12.5885 20.2656 12.8281C20.5052 13.0677 20.625 13.3646 20.625 13.7188V14.5C22.2292 14.7917 23.5677 15.5677 24.6406 16.8281C25.7135 18.0885 26.25 19.5625 26.25 21.25H12.5ZM0 13.75H5V0H0V13.75ZM7.5 13.75H9.96875L18.7812 10.4688C19.1354 10.3229 19.4271 10.0885 19.6562 9.76562C19.8854 9.44271 20 9.08333 20 8.6875C20 8.35417 19.8854 8.07292 19.6562 7.84375C19.4271 7.61458 19.1458 7.5 18.8125 7.5H15L12.8125 8.34375L12.375 7.1875L15 6.25H23.75C24.4167 6.25 25 6.01042 25.5 5.53125C26 5.05208 26.25 4.45833 26.25 3.75L16.25 0L7.5 2.4375V13.75Z" fill="#001F30"/>
</svg>
