<svg width="25" height="25" viewBox="0 0 25 25" fill="none" xmlns="http://www.w3.org/2000/svg">
<path id="contract_edit" d="M13.75 25V21.0312L18.4688 16.3125L22.4375 20.2812L17.7188 25H13.75ZM23.75 18.9688L19.7812 15L20.6875 14.0938C20.9167 13.8646 21.2083 13.75 21.5625 13.75C21.9167 13.75 22.2083 13.8646 22.4375 14.0938L24.6562 16.3125C24.8854 16.5417 25 16.8333 25 17.1875C25 17.5417 24.8854 17.8333 24.6562 18.0625L23.75 18.9688ZM7.5 8.75V6.25H18.75V8.75H7.5ZM7.5 12.5V10H18.75V12.5H7.5ZM3.75 25C2.70833 25 1.82292 24.6354 1.09375 23.9062C0.364583 23.1771 0 22.2917 0 21.25V17.5H3.75V0H22.5V11.375C22.0833 11.2708 21.6615 11.2396 21.2344 11.2813C20.8073 11.3229 20.3958 11.4271 20 11.5938V2.5H6.25V17.5H13.75L11.25 20V25H3.75Z" fill="#001F30"/>
</svg>
