<svg width="32" height="16" viewBox="0 0 32 16" fill="none" xmlns="http://www.w3.org/2000/svg">
<path id="diversity_1" d="M0 15.7895V13.7171C0 12.7522 0.487939 11.9792 1.46382 11.398C2.43969 10.8169 3.70614 10.5263 5.26316 10.5263C5.54825 10.5263 5.82237 10.5318 6.08553 10.5428C6.34868 10.5537 6.60088 10.5811 6.84211 10.625C6.53509 11.0636 6.30483 11.5351 6.15132 12.0395C5.99781 12.5439 5.92105 13.0811 5.92105 13.6513V15.7895H0ZM7.89474 15.7895V13.6513C7.89474 12.2259 8.6239 11.0746 10.0822 10.1974C11.5406 9.32018 13.443 8.88158 15.7895 8.88158C18.1579 8.88158 20.0658 9.32018 21.5132 10.1974C22.9605 11.0746 23.6842 12.2259 23.6842 13.6513V15.7895H7.89474ZM25.6579 15.7895V13.6513C25.6579 13.0811 25.5866 12.5439 25.4441 12.0395C25.3015 11.5351 25.0877 11.0636 24.8026 10.625C25.0439 10.5811 25.2906 10.5537 25.5428 10.5428C25.795 10.5318 26.0526 10.5263 26.3158 10.5263C27.8947 10.5263 29.1667 10.8169 30.1316 11.398C31.0965 11.9792 31.5789 12.7522 31.5789 13.7171V15.7895H25.6579ZM5.26316 9.21053C4.53947 9.21053 3.91996 8.95285 3.40461 8.4375C2.88925 7.92215 2.63158 7.30263 2.63158 6.57895C2.63158 5.83333 2.88925 5.20833 3.40461 4.70395C3.91996 4.19956 4.53947 3.94737 5.26316 3.94737C6.00877 3.94737 6.63377 4.19956 7.13816 4.70395C7.64254 5.20833 7.89474 5.83333 7.89474 6.57895C7.89474 7.30263 7.64254 7.92215 7.13816 8.4375C6.63377 8.95285 6.00877 9.21053 5.26316 9.21053ZM26.3158 9.21053C25.5921 9.21053 24.9726 8.95285 24.4572 8.4375C23.9419 7.92215 23.6842 7.30263 23.6842 6.57895C23.6842 5.83333 23.9419 5.20833 24.4572 4.70395C24.9726 4.19956 25.5921 3.94737 26.3158 3.94737C27.0614 3.94737 27.6864 4.19956 28.1908 4.70395C28.6952 5.20833 28.9474 5.83333 28.9474 6.57895C28.9474 7.30263 28.6952 7.92215 28.1908 8.4375C27.6864 8.95285 27.0614 9.21053 26.3158 9.21053ZM15.7895 7.89474C14.693 7.89474 13.761 7.51096 12.9934 6.74342C12.2259 5.97588 11.8421 5.04386 11.8421 3.94737C11.8421 2.82895 12.2259 1.89145 12.9934 1.13487C13.761 0.37829 14.693 0 15.7895 0C16.9079 0 17.8454 0.37829 18.602 1.13487C19.3586 1.89145 19.7368 2.82895 19.7368 3.94737C19.7368 5.04386 19.3586 5.97588 18.602 6.74342C17.8454 7.51096 16.9079 7.89474 15.7895 7.89474Z" fill="#001F30"/>
</svg>
