<svg width="18" height="18" viewBox="0 0 18 18" fill="none" xmlns="http://www.w3.org/2000/svg">
<path d="M9.00012 2.06256C3.79737 2.06256 2.06262 3.79731 2.06262 9.00006C2.06262 14.2028 3.79737 15.9376 9.00012 15.9376C14.2029 15.9376 15.9376 14.2028 15.9376 9.00006" stroke="#B2BEC3" stroke-width="1.5" stroke-linecap="round" stroke-linejoin="round"/>
<path fill-rule="evenodd" clip-rule="evenodd" d="M14.6464 3.22785V3.22785C13.9016 2.5686 12.7639 2.6376 12.1046 3.38235C12.1046 3.38235 8.82789 7.0836 7.69164 8.36835C6.55389 9.65235 7.38789 11.4261 7.38789 11.4261C7.38789 11.4261 9.26589 12.0209 10.3864 10.7549C11.5076 9.48885 14.8009 5.7696 14.8009 5.7696C15.4601 5.02485 15.3904 3.8871 14.6464 3.22785Z" stroke="#B2BEC3" stroke-width="1.5" stroke-linecap="round" stroke-linejoin="round"/>
<path d="M11.2567 4.35059L13.953 6.73784" stroke="#B2BEC3" stroke-width="1.5" stroke-linecap="round" stroke-linejoin="round"/>
</svg>
