<svg width="31" height="25" viewBox="0 0 31 25" fill="none" xmlns="http://www.w3.org/2000/svg">
<path id="hotel_class" d="M21.3158 16.4474L26.3158 12.1711L30.2632 12.5L24.4737 17.5329L26.1842 25L22.8289 22.9605L21.3158 16.4474ZM18.2237 6.84211L16.8421 3.61842L18.3553 0L21.3816 7.13816L18.2237 6.84211ZM9.01316 19.5066L13.1579 17.0066L17.3026 19.5395L16.2171 14.8026L19.8684 11.6447L15.0658 11.2171L13.1579 6.74342L11.25 11.1842L6.44737 11.6118L10.0987 14.8026L9.01316 19.5066ZM5.03289 25L7.17105 15.7566L0 9.53947L9.47368 8.7171L13.1579 0L16.8421 8.7171L26.3158 9.53947L19.1447 15.7566L21.2829 25L13.1579 20.0987L5.03289 25Z" fill="#001F30"/>
</svg>
