<svg width="25" height="25" viewBox="0 0 25 25" fill="none" xmlns="http://www.w3.org/2000/svg">
<path id="package" d="M2.77778 25C2.01389 25 1.35995 24.728 0.815972 24.184C0.271991 23.64 0 22.9861 0 22.2222V2.77778C0 2.01389 0.271991 1.35995 0.815972 0.815972C1.35995 0.271991 2.01389 0 2.77778 0H22.2222C22.9861 0 23.64 0.271991 24.184 0.815972C24.728 1.35995 25 2.01389 25 2.77778V22.2222C25 22.9861 24.728 23.64 24.184 24.184C23.64 24.728 22.9861 25 22.2222 25H2.77778ZM5.55556 19.4444H12.5V16.6667H5.55556V19.4444ZM6.94444 13.8889L12.5 11.1111L18.0556 13.8889V2.77778H6.94444V13.8889Z" fill="#001F30"/>
</svg>
